<svg width="275" height="250" viewBox="0 0 275 250" fill="none" xmlns="http://www.w3.org/2000/svg">
<path d="M180.954 1.06014C180.46 1.23605 179.622 1.60986 179.128 1.9177C178.612 2.22554 165.742 15.2428 150.487 30.8546L122.769 59.2419L104.399 40.4856C84.8248 20.476 85.5983 21.2017 83.5786 21.2017C82.0961 21.2017 80.4631 22.3231 79.6681 23.8843C79.174 24.8738 79.131 26.6328 79.5822 27.7543C79.8185 28.326 85.0397 33.8011 96.943 46.0048L113.96 63.4197H66.3682C35.6215 63.4197 18.1532 63.5076 17.036 63.6396C14.565 63.9694 13.018 64.4092 10.9769 65.3987C8.80675 66.4541 7.6465 67.2677 5.90612 68.9388C3.4567 71.2696 1.60888 74.4579 0.577548 78.0641L0.0833663 79.8012L0.0189078 148.405C-0.0240645 223.87 -0.110009 218.923 1.26511 222.573C2.29644 225.299 3.37075 226.971 5.56234 229.235C7.77542 231.522 9.60174 232.776 12.309 233.853C15.8542 235.26 5.7772 235.15 137.487 235.15C269.198 235.15 259.121 235.26 262.666 233.853C265.287 232.798 267.221 231.5 269.327 229.345C271.432 227.19 272.7 225.212 273.731 222.529C275.085 218.967 274.999 223.716 274.999 149.197C274.977 93.4561 274.934 81.0545 274.698 79.6912C273.366 72.1052 268.037 66.2122 260.625 64.1013L258.562 63.5296L194.963 63.4637L131.364 63.4197L158.157 35.978C180.18 13.4397 185.036 8.33836 185.531 7.34887C186.325 5.76569 186.411 3.34695 185.702 2.37946C184.628 0.906222 182.888 0.422474 180.954 1.06014ZM193.351 83.2973C198.895 84.2209 203.772 87.2113 207.232 91.8289C209.273 94.5335 210.927 98.5574 211.4 102.01C211.572 103.263 211.615 116.918 211.572 150.384L211.507 197L211.013 198.869C210.734 199.903 210.068 201.728 209.488 202.937C206.651 209.006 201.753 213.14 195.264 214.965L193.459 215.471H115.249H37.0396L35.2777 214.987C31.2168 213.887 28.2947 212.194 25.437 209.314C21.3762 205.246 19.3994 200.892 18.8838 195.021C18.6044 191.745 18.6044 106.803 18.8838 103.527C19.7862 93.1922 26.9196 85.1444 36.7817 83.3193C39.1452 82.8796 190.73 82.8576 193.351 83.2973ZM243.822 120.92C248.227 121.997 252.073 125.955 253.083 130.463C253.448 132.024 253.448 134.685 253.105 136.202C252.052 140.797 248.421 144.601 243.951 145.767C242.318 146.185 239.353 146.185 237.742 145.767C234.476 144.887 231.253 142.271 229.813 139.28C226.848 133.233 228.696 126.219 234.197 122.569C235.4 121.777 237.398 120.964 238.687 120.744C239.955 120.524 242.555 120.612 243.822 120.92ZM243.457 152.715C246.938 153.441 250.526 156.277 252.052 159.51C253.062 161.643 253.384 163.116 253.341 165.557C253.319 169.075 252.009 172.043 249.387 174.594C246.959 176.947 244.102 178.046 240.6 178.024C232.628 177.936 226.805 170.064 228.804 162.06C229.663 158.608 231.79 155.816 234.992 153.947C237.183 152.693 240.814 152.166 243.457 152.715Z" fill="#E9286D"/>
<path d="M93.3864 203.285H72.2955L104.432 110.194H129.795L161.886 203.285H140.795L117.477 131.467H116.75L93.3864 203.285ZM92.0682 166.694H141.886V182.058H92.0682V166.694Z" fill="#E9286D"/>
</svg>
